<svg version="1.1" id="Layer_1" xmlns="http://www.w3.org/2000/svg" xmlns:xlink="http://www.w3.org/1999/xlink" x="0px" y="0px"
	 width="100%" viewBox="0 0 176 176" enable-background="new 0 0 176 176" xml:space="preserve">
<path fill="#000000" opacity="1.000000" stroke="none" 
	d="
M131.823822,129.727524 
	C129.075836,134.989761 126.973511,140.288757 121.617073,143.240112 
	C125.157928,135.984451 126.015259,127.860817 130.006989,121.031998 
	C132.515381,116.740784 131.896118,113.564896 128.258865,110.555824 
	C127.369164,109.819771 126.572838,108.934616 125.870880,108.013397 
	C117.872726,97.516823 120.476608,99.161377 106.686356,100.148605 
	C110.728325,104.476471 114.892242,108.135887 118.507637,112.318581 
	C122.694710,117.162643 122.779137,122.094185 120.750618,127.587387 
	C120.231682,128.992645 119.289825,130.376907 119.235725,131.797226 
	C118.808403,143.015335 110.934410,148.505203 102.632095,153.675476 
	C101.197632,154.568787 99.718819,156.137680 97.759605,154.327591 
	C98.122635,152.003616 100.297676,150.845886 101.713928,150.166855 
	C110.967728,145.730087 110.795227,135.934128 114.452995,128.390549 
	C115.971756,125.258339 115.588814,121.861977 113.747963,118.419258 
	C110.201172,111.786179 106.362251,106.859779 99.095787,101.649902 
	C98.482338,105.706978 96.369698,107.442665 92.138779,107.292145 
	C88.528458,107.163696 85.546661,106.840065 84.184067,102.659050 
	C76.460533,108.216911 71.453796,115.154572 69.168091,123.405281 
	C67.708961,128.672333 72.423912,133.273621 73.830719,138.311554 
	C76.126648,146.533508 82.754120,151.895050 87.128624,159.023087 
	C84.262627,160.689835 83.109085,158.628906 81.943794,157.318649 
	C78.516899,153.465424 75.317360,149.424591 70.939346,146.511459 
	C69.918282,145.832047 69.102554,144.527435 68.668159,143.336884 
	C66.618172,137.718506 64.804306,132.014160 62.766167,126.391243 
	C61.289974,122.318649 61.931980,118.968552 64.470238,115.291870 
	C68.333572,109.695801 73.137405,104.986794 78.267746,99.913643 
	C70.147491,98.284142 64.272728,98.234261 58.429768,105.393303 
	C53.724525,111.158340 50.952267,115.160370 54.165615,122.386719 
	C56.004337,126.521744 56.116684,131.401978 58.041298,135.669998 
	C55.428127,137.074982 54.681862,135.120804 53.916336,133.869537 
	C50.494164,128.275879 48.427456,122.103012 46.866138,115.789940 
	C46.157665,112.925293 47.027733,110.025749 48.988640,107.849968 
	C52.550163,103.898201 56.565666,100.348869 60.044186,96.330727 
	C64.266159,91.453804 69.675987,92.480904 74.842812,93.081322 
	C78.667503,93.525780 80.267860,91.681427 81.741913,88.818413 
	C79.400047,85.301575 75.480911,85.329887 72.639168,85.662338 
	C65.356308,86.514381 62.585899,81.846832 59.734371,76.848885 
	C58.745941,75.116447 58.265930,72.962509 56.951183,71.569939 
	C50.506615,64.743904 51.265598,57.440659 54.696442,49.584408 
	C56.622135,45.174786 57.788868,40.427673 60.239033,36.233921 
	C61.085823,34.784534 61.675484,32.728104 64.828636,33.449188 
	C61.058033,40.897629 61.425030,49.334866 58.018188,56.705791 
	C56.675770,59.610207 57.029400,61.868130 58.862141,64.044525 
	C61.045792,66.637627 62.694569,69.545105 63.821659,72.660057 
	C65.737244,77.954170 69.275192,79.765045 75.344444,78.411179 
	C72.783958,74.545891 70.670677,70.689255 67.926079,67.351791 
	C62.283943,60.490898 63.954315,54.619804 67.609940,47.028511 
	C72.202530,37.491512 80.348511,31.918055 86.985069,24.659882 
	C88.049667,23.495562 89.374008,22.187359 91.352348,23.511747 
	C91.483467,26.022717 89.378059,27.742579 88.062798,28.718651 
	C81.518364,33.575359 79.523483,41.544319 74.517052,47.395569 
	C69.914818,52.774414 70.310410,58.535431 74.352890,65.449890 
	C77.786720,55.385132 80.268127,44.261578 93.260292,45.545265 
	C105.151802,46.720207 106.455978,57.575062 109.359367,66.595131 
	C115.761856,59.415813 114.242355,52.544666 107.972099,42.461906 
	C103.821205,35.787128 97.135773,33.694588 91.733688,29.472433 
	C92.142715,28.805115 92.297012,28.301615 92.480225,28.290867 
	C98.972740,27.909969 111.458260,35.207199 114.044571,40.938625 
	C115.484573,44.129780 117.087257,47.206425 118.886017,50.222324 
	C121.579597,54.738541 122.178558,59.190899 118.953644,64.145638 
	C115.231316,69.864609 111.372978,75.426285 106.642563,80.512917 
	C113.508026,82.539566 117.121925,81.170097 119.965393,75.537514 
	C121.614197,72.271431 123.051338,68.922127 125.444008,66.056168 
	C127.451881,63.651142 127.308502,61.089001 125.888344,58.180248 
	C122.393265,51.021648 122.951851,42.745853 119.116676,35.460461 
	C122.179497,35.066257 122.733452,36.886662 123.532089,38.225117 
	C128.025772,45.756218 129.870819,54.289165 132.607483,62.484871 
	C132.950500,63.512093 132.812958,64.565712 132.201630,65.353951 
	C127.694206,71.165802 125.338387,78.258499 120.856255,84.116219 
	C118.673134,86.969353 116.300735,88.020340 112.794495,87.880188 
	C109.532066,87.749794 106.240211,88.355469 102.809189,88.650154 
	C103.972115,95.248932 109.182281,94.200348 112.592934,93.372978 
	C119.431946,91.713921 122.819984,95.722580 126.464462,99.884727 
	C128.545624,102.261497 130.298447,104.961082 132.566147,107.131882 
	C137.366974,111.727562 137.779037,116.854851 135.130798,122.587311 
	C134.083008,124.855392 133.038498,127.124977 131.823822,129.727524 
z"/>
</svg>